<svg xmlns="http://www.w3.org/2000/svg" viewBox="0 0 128 128">
  <defs>
    <linearGradient id="g" x1="0%" x2="100%" y1="0%" y2="100%">
      <stop offset="0%" stop-color="#14b8a6" />
      <stop offset="50%" stop-color="#6366f1" />
      <stop offset="100%" stop-color="#a855f7" />
    </linearGradient>
  </defs>
  <path
    fill="url(#g)"
    d="M108.2 19.8 70.7 7.1a14 14 0 0 0-8.9 0L21.8 19.8A14 14 0 0 0 12 33v45.7c0 5.9 3.5 11.1 8.9 13.3l38.5 15.7a14 14 0 0 0 10.3 0l38.5-15.7c5.4-2.2 8.9-7.4 8.9-13.3V33a14 14 0 0 0-8.9-13.2ZM86 88.5l-22 8.9a6 6 0 0 1-4.4 0l-22-8.9A6 6 0 0 1 34 83V55.6l26 10.9a6 6 0 0 0 4.4 0l26-10.9V83a6 6 0 0 1-4.4 5.5Zm4.4-50.5-26 10.9a6 6 0 0 1-4.4 0l-26-10.9a6 6 0 0 1-3.6-5.5 6 6 0 0 1 3.6-5.5l26-10.9a6 6 0 0 1 4.4 0l26 10.9a6 6 0 0 1 0 11Z"
  />
</svg>

